<?xml version="1.0" encoding="iso-8859-1"?>
<!-- Generator: Adobe Illustrator 19.0.0, SVG Export Plug-In . SVG Version: 6.00 Build 0)  -->
<svg version="1.1" id="Capa_1" xmlns="http://www.w3.org/2000/svg" xmlns:xlink="http://www.w3.org/1999/xlink" x="0px" y="0px"
	 viewBox="0 0 512 512" style="enable-background:new 0 0 512 512;" xml:space="preserve">
<g>
	<g>
		<path d="M256,0C114.844,0,0,114.844,0,256s114.844,256,256,256s256-114.844,256-256S397.156,0,256,0z M102.667,264.135
			c-1.84,1.506-4.1,2.531-6.667,2.531c-5.896,0-10.667-4.771-10.667-10.667c0-12.348,1.682-24.526,4.292-36.483
			c0,0,2.1-9.458,2.188-9.703c20.47-72.668,87.898-124.48,164.188-124.48c61.859,0,119.253,34.085,149.172,87.702
			c2.954,5.296,0.534,12.059-4.944,14.658l-19.316,9.168c-5.141,2.44-11.065,0.277-13.91-4.652C344.315,152.897,301.79,128,256,128
			c-44.453,0-84.882,23.462-107.936,59.448l15.311,5.104c3.667,1.219,6.385,4.333,7.104,8.135s-0.677,7.698-3.646,10.177l-64,53.333
			C102.78,264.242,102.72,264.107,102.667,264.135z M423.484,292.483c0,0-2.1,9.458-2.188,9.703
			c-20.47,72.668-87.898,124.48-164.188,124.48c-61.859,0-119.253-34.085-149.172-87.702c-2.954-5.296-0.534-12.059,4.944-14.658
			l19.316-9.168c5.141-2.44,11.065-0.277,13.91,4.652C168.794,359.103,211.319,384,257.109,384
			c44.453,0,84.882-23.462,107.936-59.448l-15.311-5.104c-3.667-1.219-6.385-4.333-7.104-8.135s0.677-7.698,3.646-10.177l64-53.333
			c0.053-0.044,0.113,0.091,0.167,0.063c1.84-1.506,4.1-2.531,6.667-2.531c5.896,0,10.667,4.771,10.667,10.667
			C427.776,268.348,426.094,280.526,423.484,292.483z"/>
	</g>
</g>
<g>
</g>
<g>
</g>
<g>
</g>
<g>
</g>
<g>
</g>
<g>
</g>
<g>
</g>
<g>
</g>
<g>
</g>
<g>
</g>
<g>
</g>
<g>
</g>
<g>
</g>
<g>
</g>
<g>
</g>
</svg>
