<?xml version="1.0" encoding="UTF-8" standalone="no"?>
<!-- Generator: Adobe Illustrator 16.0.0, SVG Export Plug-In . SVG Version: 6.00 Build 0)  -->

<svg
   xmlns:dc="http://purl.org/dc/elements/1.1/"
   xmlns:cc="http://creativecommons.org/ns#"
   xmlns:rdf="http://www.w3.org/1999/02/22-rdf-syntax-ns#"
   xmlns:svg="http://www.w3.org/2000/svg"
   xmlns="http://www.w3.org/2000/svg"
   xmlns:sodipodi="http://sodipodi.sourceforge.net/DTD/sodipodi-0.dtd"
   xmlns:inkscape="http://www.inkscape.org/namespaces/inkscape"
   version="1.1"
   id="Capa_1"
   x="0px"
   y="0px"
   width="492.664px"
   height="492.664px"
   viewBox="0 0 492.664 492.664"
   style="enable-background:new 0 0 492.664 492.664;"
   xml:space="preserve"
   sodipodi:docname="world-wide-web.svg"
   inkscape:version="0.92.1 r15371"><metadata
     id="metadata75"><rdf:RDF><cc:Work
         rdf:about=""><dc:format>image/svg+xml</dc:format><dc:type
           rdf:resource="http://purl.org/dc/dcmitype/StillImage" /><dc:title></dc:title></cc:Work></rdf:RDF></metadata><defs
     id="defs73" /><sodipodi:namedview
     pagecolor="#ffffff"
     bordercolor="#666666"
     borderopacity="1"
     objecttolerance="10"
     gridtolerance="10"
     guidetolerance="10"
     inkscape:pageopacity="0"
     inkscape:pageshadow="2"
     inkscape:window-width="1440"
     inkscape:window-height="837"
     id="namedview71"
     showgrid="false"
     inkscape:snap-object-midpoints="true"
     inkscape:zoom="0.23951415"
     inkscape:cx="-745.86447"
     inkscape:cy="778.81416"
     inkscape:window-x="-8"
     inkscape:window-y="-8"
     inkscape:window-maximized="1"
     inkscape:current-layer="g36" /><g
     id="g38"><g
       id="g36"><path
         d="M246.332,0C110.286,0,0,110.286,0,246.332c0,136.045,110.286,246.332,246.332,246.332s246.332-110.287,246.332-246.332    C492.664,110.286,382.378,0,246.332,0z M246.332,448.686c-111.581,0-202.354-90.773-202.354-202.354    c0-111.578,90.773-202.354,202.354-202.354s202.354,90.773,202.354,202.354S357.913,448.686,246.332,448.686z"
         id="path2" /><path
         d="M141.828,186.987H91.147c-5.008,13.052-8.429,26.875-9.994,41.258h56.5C138.299,214.132,139.709,200.32,141.828,186.987z"
         id="path4" /><path
         d="M110.47,150.812h39.201c4.32-15.437,9.689-29.842,16.085-42.789c1.669-3.38,3.413-6.587,5.188-9.716    C146.771,110.672,126.015,128.77,110.47,150.812z"
         id="path6" /><path
         d="M350.836,305.678h50.681c5.009-13.052,8.43-26.875,9.992-41.258h-56.497C354.366,278.532,352.955,292.344,350.836,305.678    z"
         id="path8" /><path
         d="M355.012,228.245h56.5c-1.562-14.383-4.984-28.206-9.992-41.258h-50.682C352.955,200.32,354.366,214.132,355.012,228.245z    "
         id="path10" /><path
         d="M326.909,384.639c-1.67,3.381-3.414,6.588-5.188,9.717c24.176-12.361,44.93-30.459,60.475-52.502h-39.2    C338.674,357.285,333.304,371.693,326.909,384.639z"
         id="path12" /><path
         d="M342.99,150.812h39.201c-15.545-22.043-36.3-40.141-60.475-52.502c1.775,3.129,3.521,6.335,5.188,9.715    C333.304,120.971,338.674,135.379,342.99,150.812z"
         id="path14" /><path
         d="M149.673,341.854H110.47c15.545,22.043,36.299,40.141,60.475,52.502c-1.775-3.129-3.52-6.336-5.188-9.717    C159.36,371.693,153.991,357.285,149.673,341.854z"
         id="path16" /><path
         d="M137.653,264.42h-56.5c1.563,14.383,4.983,28.206,9.991,41.258h50.682C139.709,292.344,138.299,278.532,137.653,264.42z"
         id="path18" /><path
         d="M264.42,86.158v64.654h40.894C294.986,119.049,280.05,96.339,264.42,86.158z"
         id="path20" /><path
         d="M187.352,150.812h40.894V86.158C212.614,96.339,197.677,119.049,187.352,150.812z"
         id="path22" /><path
         d="M178.435,305.678h49.811V264.42H173.85C174.569,278.99,176.15,292.788,178.435,305.678z"
         id="path24" /><path
         d="M173.849,228.245h54.396v-41.258h-49.811C176.15,199.876,174.569,213.674,173.849,228.245z"
         id="path26" /><path
         d="M264.42,186.987v41.258h54.396c-0.722-14.571-2.306-28.369-4.587-41.258H264.42z"
         id="path28" /><path
         d="M264.42,305.678h49.811c2.281-12.887,3.865-26.686,4.587-41.258h-54.396L264.42,305.678L264.42,305.678z"
         id="path30" /><path
         d="M228.245,406.507v-64.653h-40.893C197.677,373.616,212.614,396.326,228.245,406.507z"
         id="path32" /><path
         d="M264.42,406.507c15.63-10.179,30.566-32.889,40.894-64.653H264.42V406.507z"
         id="path34" /><circle
         id="path140"
         cx="394.34296"
         cy="393.84967"
         r="82.085365"
         style="fill:#ffffff;fill-opacity:1;stroke-width:0.60963118" /><g
         id="g138"
         transform="matrix(0.38841036,0,0,0.38841036,294.90991,294.41661)"><g
           id="g81"><g
             id="g79"><path
               id="path77"
               d="M 256,0 C 114.844,0 0,114.844 0,256 0,397.156 114.844,512 256,512 397.156,512 512,397.156 512,256 512,114.844 397.156,0 256,0 Z M 102.667,264.135 c -1.84,1.506 -4.1,2.531 -6.667,2.531 -5.896,0 -10.667,-4.771 -10.667,-10.667 0,-12.348 1.682,-24.526 4.292,-36.483 0,0 2.1,-9.458 2.188,-9.703 20.47,-72.668 87.898,-124.48 164.188,-124.48 61.859,0 119.253,34.085 149.172,87.702 2.954,5.296 0.534,12.059 -4.944,14.658 l -19.316,9.168 c -5.141,2.44 -11.065,0.277 -13.91,-4.652 C 344.315,152.897 301.79,128 256,128 c -44.453,0 -84.882,23.462 -107.936,59.448 l 15.311,5.104 c 3.667,1.219 6.385,4.333 7.104,8.135 0.719,3.802 -0.677,7.698 -3.646,10.177 l -64,53.333 c -0.053,0.045 -0.113,-0.09 -0.166,-0.062 z m 320.817,28.348 c 0,0 -2.1,9.458 -2.188,9.703 -20.47,72.668 -87.898,124.48 -164.188,124.48 -61.859,0 -119.253,-34.085 -149.172,-87.702 -2.954,-5.296 -0.534,-12.059 4.944,-14.658 l 19.316,-9.168 c 5.141,-2.44 11.065,-0.277 13.91,4.652 22.688,39.313 65.213,64.21 111.003,64.21 44.453,0 84.882,-23.462 107.936,-59.448 l -15.311,-5.104 c -3.667,-1.219 -6.385,-4.333 -7.104,-8.135 -0.719,-3.802 0.677,-7.698 3.646,-10.177 l 64,-53.333 c 0.053,-0.044 0.113,0.091 0.167,0.063 1.84,-1.506 4.1,-2.531 6.667,-2.531 5.896,0 10.667,4.771 10.667,10.667 -10e-4,12.346 -1.683,24.524 -4.293,36.481 z"
               inkscape:connector-curvature="0" /></g></g><g
           id="g83" /><g
           id="g85" /><g
           id="g87" /><g
           id="g89" /><g
           id="g91" /><g
           id="g93" /><g
           id="g95" /><g
           id="g97" /><g
           id="g99" /><g
           id="g101" /><g
           id="g103" /><g
           id="g105" /><g
           id="g107" /><g
           id="g109" /><g
           id="g111" /></g></g></g><g
     id="g40" /><g
     id="g42" /><g
     id="g44" /><g
     id="g46" /><g
     id="g48" /><g
     id="g50" /><g
     id="g52" /><g
     id="g54" /><g
     id="g56" /><g
     id="g58" /><g
     id="g60" /><g
     id="g62" /><g
     id="g64" /><g
     id="g66" /><g
     id="g68" /></svg>